<svg xmlns="http://www.w3.org/2000/svg" viewBox="0 0 566.83 198.39"><defs><style>.cls-1{fill:#2e4970;}.cls-2{fill:none;}.cls-3{fill:#90ad3d;}.cls-3,.cls-4,.cls-5,.cls-6,.cls-7{opacity:0.8;}.cls-4{fill:#a4b95d;}.cls-5{fill:#bcc988;}.cls-6{fill:#afc173;}.cls-7{fill:#c8d29c;}</style></defs><title>AKCASC_colorArtboard 1</title><g id="Layer_4" data-name="Layer 4"><path class="cls-1" d="M70.38,2.87,90.76,139.61H54.34L52.43,115H39.68l-2.14,24.57H.7L18.88,2.87ZM51.49,90.8q-2.7-23.23-5.42-57.44Q40.63,72.65,39.23,90.8Z"/><path class="cls-1" d="M181.75,2.87,161.31,64.61l22.38,75H146.87L132.44,81v58.61H96.81V2.87h35.63V56L148.31,2.87Z"/><path class="cls-1" d="M293.19,62.42H257.55V38.65q0-10.37-1.14-12.94t-5-2.57q-4.4,0-5.58,3.13T244.6,39.78v63.51q0,10,1.19,13c.79,2,2.56,3,5.33,3s4.39-1,5.21-3,1.22-6.81,1.22-14.31V84.8h35.64v5.33q0,21.23-3,30.11T276.89,135.8q-10.27,6.69-25.35,6.69-15.66,0-25.81-5.66t-13.46-15.67q-3.3-10-3.3-30.11V51.1a179,179,0,0,1,1-22.17A31,31,0,0,1,216,14.7,33.71,33.71,0,0,1,230,3.93,50.56,50.56,0,0,1,250.53,0q15.73,0,26,6.07T290,21.21q3.21,9.08,3.22,28.22Z"/><path class="cls-1" d="M367.57,2.87l20.37,136.74H351.53L349.61,115H336.87l-2.15,24.57H297.89L316.06,2.87ZM348.68,90.8q-2.7-23.23-5.43-57.44-5.44,39.28-6.84,57.44Z"/><path class="cls-1" d="M469.49,44.26H436.4V34.12q0-7.09-1.27-9a4.69,4.69,0,0,0-4.23-1.94A5.4,5.4,0,0,0,426,25.76q-1.65,2.63-1.65,8,0,6.84,1.86,10.31t10.07,8.36q23.79,14.09,30,23.13t6.18,29.14q0,14.61-3.43,21.53T455.78,137.8q-9.81,4.68-22.85,4.69-14.31,0-24.42-5.41t-13.25-13.77q-3.12-8.36-3.13-23.73v-9h33.1v16.63c0,5.13.46,8.42,1.39,9.89s2.59,2.19,5,2.19a5.8,5.8,0,0,0,5.28-2.78q1.74-2.79,1.74-8.28,0-12.07-3.3-15.8T418.62,80.07Q405.35,71.28,401,67.31a29.69,29.69,0,0,1-7.15-11q-2.83-7-2.84-17.9,0-15.7,4-23T408,4.1Q417,0,429.71,0q13.89,0,23.66,4.48t12.95,11.27q3.18,6.8,3.17,23.1Z"/><path class="cls-1" d="M566.83,62.42H531.2V38.65q0-10.37-1.14-12.94t-5-2.57q-4.41,0-5.59,3.13t-1.18,13.51v63.51q0,10,1.18,13t5.34,3q4,0,5.2-3T531.2,102V84.8h35.63v5.33q0,21.23-3,30.11T550.54,135.8q-10.29,6.69-25.35,6.69-15.66,0-25.82-5.66t-13.46-15.67q-3.3-10-3.3-30.11V51.1a176.58,176.58,0,0,1,1-22.17,31,31,0,0,1,6.05-14.23,33.74,33.74,0,0,1,14-10.77A50.48,50.48,0,0,1,524.17,0q15.75,0,26,6.07t13.46,15.14q3.21,9.08,3.21,28.22Z"/></g><g id="Layer_5" data-name="Layer 5"><path class="cls-2" d="M132.39,82.09l.24.08-.24-1Z"/><path class="cls-1" d="M39.82,83.6c-10.67,2.84-17.12,6-32.63,6.87L6.47,95.9c14.09-.84,23.3-4,32.88-7.22C39.49,87.1,39.64,85.4,39.82,83.6Z"/><path class="cls-1" d="M81.62,78.86c-14,.23-23.75,1.18-31.26,2.46.13,1.26.27,2.51.4,3.74A126.11,126.11,0,0,1,81.85,80.4Z"/><path class="cls-1" d="M80.63,72.2c-15,.76-23.74,2.73-30.7,5,.06.64.13,1.27.19,1.9,7.09-2,16.07-3.73,30.91-4.15Z"/><path class="cls-1" d="M79.43,64.15l-.58-3.88a111,111,0,0,0-30,5.73c.12,1.27.24,2.53.36,3.77C56.17,67.07,64.89,64.81,79.43,64.15Z"/><path class="cls-1" d="M80,68.27c-14.93.79-23.56,2.81-30.5,5.09.09.9.18,1.79.27,2.66a139.7,139.7,0,0,1,30.67-4.77Z"/><path class="cls-1" d="M41.45,68.65c-9.8,3.7-18.81,7.46-32.52,8.72l-.54,4.14c16.52-1,24.52-4.51,32.51-8.16C41.07,71.84,41.25,70.27,41.45,68.65Z"/><path class="cls-1" d="M44.87,91c-10,3.9-17.88,8.18-38.94,9l-.13,1c26.14-.76,30.82-6,42.84-10Z"/><path class="cls-1" d="M82.94,87.72C43,89.39,43.83,100.75,5.67,102l-.4,3c41.19-1.1,33.84-12.85,78.07-14.56Z"/><path class="cls-1" d="M40.54,76.6c-7.56,2.77-15.76,5.29-32.3,6l-.13,1a130.43,130.43,0,0,0,32.21-4.91C40.39,78,40.46,77.3,40.54,76.6Z"/><path class="cls-1" d="M46,33.56q1.25,15.77,2.5,29.18c7-2.14,15.56-4,30-4.54L70.32,3.07H18.81L9.7,71.6C26,70.73,33.77,67.86,41.89,65Q43.52,51.45,46,33.56Z"/><path class="cls-1" d="M51.18,88.75c0,.48.1,1,.16,1.41,6.74-1.94,15.93-3.47,31.39-3.85l-.3-2C67.49,84.7,58.33,86.5,51.18,88.75Z"/><path class="cls-1" d="M40.1,80.72c-7.52,2.73-15.81,5.2-32.39,5.84l-.26,2c16.48-.67,24.65-3.28,32.48-6.05C40,81.91,40,81.33,40.1,80.72Z"/><path class="cls-1" d="M.63,139.82H37.48l2.14-24.58H52.37l1.91,24.58H90.7l-6.84-45.9c-43.42,1-39.33,12-78.85,13Z"/><path class="cls-1" d="M96.75,87.56v2.63c21,.2,28.3,3.39,35.64,6.85V94.58C124.43,91.15,116.17,88,96.75,87.56Z"/><path class="cls-1" d="M136.08,96.17l.71,2.91c7,3.07,16.06,5.93,36.7,6.72l-.64-2.14C152.94,102.71,143.88,99.49,136.08,96.17Z"/><path class="cls-1" d="M161.26,64.81,181.7,3.07H148.26L132.39,56.2V3.07H96.75V58.18c33.69,1.35,33.39,10.9,66.66,13.83Z"/><path class="cls-1" d="M146.83,139.82h36.82l-9.56-32c-18.81-.67-28.62-3-36.53-5.61Z"/><path class="cls-1" d="M167.33,85.16l-1.17-3.93c-39.72-2.5-28.16-13-69.41-13.3v3C138.14,71.25,129.35,82.49,167.33,85.16Z"/><path class="cls-1" d="M96.75,78.93v1.58c14.85.79,25.35,3.64,35.64,6.69V83.77A152.59,152.59,0,0,0,96.75,78.93Z"/><path class="cls-1" d="M168.83,90.18c-16.66-1.08-25.86-3.76-35.76-6.24l.92,3.74c10.62,3.17,21.24,6.45,36.42,7.8Z"/><path class="cls-1" d="M96.75,139.82h35.64V100.41c-8.58-3-16.79-5.94-35.64-6.48Z"/><path class="cls-1" d="M132.39,91c-9.06-3-17.33-5.93-35.64-6.62v1.92c19.73.56,27,3.69,35.64,6.83Z"/><path class="cls-1" d="M165.51,79.07l-.79-2.67c-26.57-3.87-39-14.41-68-16.15v3.88C131.14,65.59,130.11,76.18,165.51,79.07Z"/><path class="cls-1" d="M135,91.86l.59,2.41c7.49,2.51,17,4.82,36.1,5.56l-.61-2C152.79,97,143.19,94.47,135,91.86Z"/><path class="cls-1" d="M132.39,81.2l.24,1c8.38,3,17.52,5.92,35.91,7l-.59-2c-41.87-2.63-29.34-15-71.2-15.33V75c18.31.73,26.58,3.89,35.64,7.09Z"/><path class="cls-1" d="M244.57,71.25v-3.9c-12.6,2.67-23.93,6-35.64,8.14V78.4C222.57,76.73,233.61,73.84,244.57,71.25Z"/><path class="cls-1" d="M208.93,89.51v1.74c0,.92,0,1.82,0,2.7,11.71-2,23-5.11,35.63-7.6V84C232.78,85.91,222.05,88.17,208.93,89.51Z"/><path class="cls-1" d="M284.54,85a151.58,151.58,0,0,0-27,2.47V89.1a179.58,179.58,0,0,1,26.39-1.88,72.27,72.27,0,0,1,9.25.68V85.4C290.27,85.17,287.4,85,284.54,85Z"/><path class="cls-1" d="M244.57,83V80.39c-11.79,2.07-22.52,4.56-35.64,6v2.16C222.57,87.28,233.61,85,244.57,83Z"/><path class="cls-1" d="M244.57,40q0-10.39,1.18-13.51t5.59-3.13q3.89,0,5,2.57t1.15,12.94V60.73A131.94,131.94,0,0,1,283.91,58a85.1,85.1,0,0,1,9.25.54V49.63q0-19.16-3.22-28.22T276.48,6.27Q266.23.2,250.49.2A50.56,50.56,0,0,0,230,4.12a33.71,33.71,0,0,0-14,10.77,31,31,0,0,0-6.06,14.24,178.86,178.86,0,0,0-1,22.17V71.37c13.64-1.79,24.68-4.89,35.64-7.65Z"/><path class="cls-1" d="M244.57,77.19v-5.4C232.78,74.62,222.05,78,208.93,80v4.31C222.57,82.66,233.61,79.77,244.57,77.19Z"/><path class="cls-1" d="M209,96.78c0,.6,0,1.19.05,1.77,13.07-1.75,23.77-4.68,35.52-7.12V90.14C233.62,92.55,222.55,95.23,209,96.78Z"/><path class="cls-1" d="M209.24,102.61c0,.7.09,1.4.14,2.08,12.92-1.49,23.54-3.94,35.19-6V96C233.7,98.39,222.73,101.05,209.24,102.61Z"/><path class="cls-1" d="M283.91,91.08a151.26,151.26,0,0,0-26.39,2.34v3.31a210.8,210.8,0,0,1,26.39-1.6c2.84,0,5.92.18,9.19.48,0-1.33,0-2.71,0-4.12C290.09,91.23,287,91.08,283.91,91.08Z"/><path class="cls-1" d="M257.52,98.13v4.06q0,11.27-1.23,14.31c-.82,2-2.55,3-5.21,3s-4.54-1-5.33-3-1.18-6.36-1.18-13v-2.94c-10.79,2.21-21.67,4.69-35,6.15a67.34,67.34,0,0,0,2.69,14.66q3.3,10,13.46,15.67t25.82,5.66q15.06,0,25.35-6.69t13.29-15.56q2.57-7.58,2.94-24.15c-3.09-.24-6.14-.38-9.18-.38A160.22,160.22,0,0,0,257.52,98.13Z"/><path class="cls-1" d="M378.82,78.77l-.38-2.55h-.58c-9.09,0-19.92-1.41-31.15-3.3.1,1,.2,2,.3,2.92A227.76,227.76,0,0,0,378.82,78.77Z"/><path class="cls-1" d="M337.39,80.12c.08-.81.17-1.64.26-2.49-11.17-2.3-21.4-5.06-30.57-7.2l-.49,3.68C316.28,75.77,326.41,78.07,337.39,80.12Z"/><path class="cls-1" d="M338,74.3q.17-1.39.33-2.85c-10.53-1.93-21.1-4.09-30.63-5.74l-.35,2.6C317,70,327.09,72.28,338,74.3Z"/><path class="cls-1" d="M304.9,86.79l-.4,3c19.62,3.86,44.7,10.67,73.36,10.67,1.43,0,2.82,0,4.19-.08l-.49-3.29C350.55,97,326.72,90.11,304.9,86.79Z"/><path class="cls-1" d="M347.92,84.53c.08.68.15,1.36.23,2a288.68,288.68,0,0,0,32.15,2.13l-.38-2.59c-.69,0-1.36,0-2.06,0A297.29,297.29,0,0,1,347.92,84.53Z"/><path class="cls-1" d="M303.49,97.41l-5.64,42.41H334.7l2.14-24.58h12.75l1.91,24.58h36.42L383,107h-.73C350.52,107,325.89,100.44,303.49,97.41Z"/><path class="cls-1" d="M379.71,84.72l-.38-2.57-1.47,0a183.12,183.12,0,0,1-30.48-2.71c.09.81.17,1.63.26,2.42A224.22,224.22,0,0,0,379.71,84.72Z"/><path class="cls-1" d="M336.9,85.07c.05-.58.11-1.17.17-1.78-11.4-1.45-21.81-3.18-31.11-4.48l-.21,1.6C315.55,81.67,325.8,83.47,336.9,85.07Z"/><path class="cls-1" d="M377.86,103c-31.18,0-52.94-6.78-73.76-10.09l-.53,4c19.75,2.69,45.17,7.62,74.29,7.62,1.63,0,3.22,0,4.77-.11l-.22-1.46C380.93,102.92,379.42,103,377.86,103Z"/><path class="cls-1" d="M343.23,33.56q1.61,20.19,3.2,36.54a187.68,187.68,0,0,0,31.65,3.7L367.54,3.07H316l-7.72,58.07c9.55,2.08,19.56,4.88,30.38,7.32Q340.42,53.82,343.23,33.56Z"/><path class="cls-1" d="M305.48,82.44l-.27,2c9.57,1.5,20.39,3.55,31.27,5.41.08-1.07.18-2.18.28-3.35C325.93,85.12,315.12,83.57,305.48,82.44Z"/><path class="cls-1" d="M348.31,88c.11,1,.23,2,.34,3h-5.42c12.36,2,24.49,3.54,34.63,3.54,1.12,0,2.22,0,3.31-.05l-.67-4.44c-.87,0-1.75,0-2.64,0A269.43,269.43,0,0,1,348.31,88Z"/><path class="cls-1" d="M436.29,52.58q-8.3-4.89-10.07-8.36t-1.86-10.31q0-5.32,1.66-7.95a5.38,5.38,0,0,1,4.86-2.62,4.69,4.69,0,0,1,4.24,1.94q1.26,1.95,1.26,9V44.46h33.1V39.05q0-16.3-3.17-23.1T453.36,4.67Q443.58.2,429.7.2,417,.2,408,4.29T395,15.65q-4,7.28-4,23,0,10.89,2.84,17.91a29.86,29.86,0,0,0,7.15,11q1.65,1.52,4.59,3.72c14.07-3.16,26.08-8.48,41.29-12.07Q442.11,56,436.29,52.58Z"/><path class="cls-1" d="M392.11,90.83v2.7a114.6,114.6,0,0,0,13.16-2.7Z"/><path class="cls-1" d="M417.58,79.59c12.62-3.52,24.68-7.76,44.23-9-.92-.89-1.94-1.8-3.05-2.74-18.46,1.5-31.63,5.68-45,9.14Q415.57,78.26,417.58,79.59Z"/><path class="cls-1" d="M392.14,102.18c0,.47,0,.94,0,1.41,12-1.43,22.11-4.45,33-7.33V95.1C414.41,97.89,404.45,100.82,392.14,102.18Z"/><path class="cls-1" d="M456.19,65.81q-2.81-2.19-6.27-4.58c-15.78,3-29,7.8-42.77,11.16q2,1.45,4.49,3.18C425.88,72.51,438.71,68.08,456.19,65.81Z"/><path class="cls-1" d="M435.26,92.66l0,0a7,7,0,0,1,.7.94,165.63,165.63,0,0,1,35.32-4c-.06-.34-.12-.66-.18-1A168.63,168.63,0,0,0,435.26,92.66Z"/><path class="cls-1" d="M467,76.86c-.24-.4-.48-.78-.73-1.15s-.61-.85-1-1.29c-18.09.82-31.2,4.4-43.57,7.93,1.25.83,2.4,1.62,3.49,2.37C437,81,449.75,77.53,467,76.86Z"/><path class="cls-1" d="M430.26,88.36c1,.73,1.82,1.41,2.56,2a167,167,0,0,1,37.65-4.73c-.26-1-.55-2-.86-3A149.89,149.89,0,0,0,430.26,88.36Z"/><path class="cls-1" d="M418.61,80.27l2.28,1.51c11.88-3.88,23.88-8.16,42.79-9.25-.29-.31-.59-.63-.91-1-18.57,1.06-31.85,4.84-44.76,8.29C418.21,80,418.4,80.14,418.61,80.27Z"/><path class="cls-1" d="M438.59,108.49q0,5.49-1.74,8.27a5.81,5.81,0,0,1-5.29,2.79q-3.56,0-4.95-2.2t-1.4-9.88v-8.8c-10.25,3.35-19.82,6.73-32.92,7.9q.56,10.55,2.95,17,3.13,8.37,13.25,13.77t24.42,5.41q13,0,22.86-4.69T469,126.39q3.42-6.92,3.43-21.54a93.18,93.18,0,0,0-1-14.26,133.07,133.07,0,0,0-34.7,4.57Q438.59,99.53,438.59,108.49Z"/><path class="cls-1" d="M421.56,90.83c-9,2.59-17.82,5-29.45,5.91v2.9c12-1.43,22.14-4.46,33.1-7.34V90.83Z"/><path class="cls-1" d="M482.6,70.49a190.25,190.25,0,0,1,35.64,4.83V72.76a155,155,0,0,0-35.64-5.25Z"/><path class="cls-1" d="M482.6,58.46v5.92a127.87,127.87,0,0,1,35.64,5.23V65.55A105.86,105.86,0,0,0,482.6,58.46Z"/><path class="cls-1" d="M537.07,85a129.89,129.89,0,0,0,29.76,3.67v-2A139.32,139.32,0,0,1,548,85Z"/><path class="cls-1" d="M531.19,89.56c10.47,3.34,21.58,6.12,35.58,6.51q.06-2.61.06-5.43a143.84,143.84,0,0,1-35.64-5.54Z"/><path class="cls-1" d="M531.19,94.91c10.12,3,20.14,5.75,35.41,6.12,0-.34,0-.66,0-1-14-.44-24.66-3.45-35.46-6.84Z"/><path class="cls-1" d="M531.19,99.81A152.8,152.8,0,0,0,566.37,105c.07-1,.13-1.94.19-3-14-.34-24.59-2.66-35.37-5.28Z"/><path class="cls-1" d="M531.19,102.19q0,11.27-1.22,14.31c-.82,2-2.56,3-5.21,3s-4.54-1-5.33-3-1.19-6.36-1.19-13V97.62a130.37,130.37,0,0,0-35.64-6.79v.42q0,20.11,3.31,30.12T499.37,137q10.15,5.66,25.81,5.66,15.08,0,25.36-6.69t13.29-15.56A60.22,60.22,0,0,0,566.22,107a127.46,127.46,0,0,1-35-5.25Z"/><path class="cls-1" d="M518.24,79.31V78c-10.7-2.88-21.75-5.56-35.64-6.43v.93A130.37,130.37,0,0,1,518.24,79.31Z"/><path class="cls-1" d="M482.6,85.84a156.55,156.55,0,0,1,35.64,5.27V89.17a150.15,150.15,0,0,0-35.64-6.25Z"/><path class="cls-1" d="M482.6,88.8v1.11c13.89.9,24.94,3.59,35.64,6.46V93.63A190.25,190.25,0,0,0,482.6,88.8Z"/><path class="cls-1" d="M482.6,77.13c13.89,1.12,24.94,4.49,35.64,8.1V81.42c-10.7-3.06-21.75-5.92-35.64-6.85Z"/><path class="cls-1" d="M518.24,40q0-10.39,1.19-13.51T525,23.34q3.88,0,5,2.57t1.14,12.94V62.62h35.64v-13q0-19.16-3.21-28.22T550.16,6.27Q539.92.2,524.17.2a50.53,50.53,0,0,0-20.53,3.92,33.81,33.81,0,0,0-14,10.77,31,31,0,0,0-6.05,14.24,176.47,176.47,0,0,0-1,22.17v4.18c16.81.28,26.95,2.76,35.64,5.72Z"/><path class="cls-3" d="M81,74.94c-14.84.42-23.82,2.1-30.91,4.15l.24,2.23c7.51-1.28,17.28-2.23,31.26-2.46Z"/><path class="cls-3" d="M39.93,82.49c-7.83,2.77-16,5.38-32.48,6.05l-.26,1.93c15.51-.84,22-4,32.63-6.87C39.85,83.24,39.89,82.86,39.93,82.49Z"/><path class="cls-3" d="M208.93,88.59v.92c13.12-1.34,23.85-3.6,35.64-5.49V83C233.61,85,222.57,87.28,208.93,88.59Z"/><path class="cls-3" d="M305.48,82.44c9.64,1.13,20.45,2.68,31.28,4.09.05-.47.09-1,.14-1.46-11.1-1.6-21.35-3.4-31.15-4.66Z"/><path class="cls-3" d="M348.31,88a269.43,269.43,0,0,0,29.55,2.13c.89,0,1.77,0,2.64,0l-.2-1.36a288.68,288.68,0,0,1-32.15-2.13C348.2,87,348.25,87.5,348.31,88Z"/><path class="cls-3" d="M421.74,82.35c12.37-3.53,25.48-7.11,43.57-7.93-.48-.61-1-1.24-1.63-1.89-18.91,1.09-30.91,5.37-42.79,9.25Z"/><path class="cls-3" d="M518.24,81.42V79.31a130.37,130.37,0,0,0-35.64-6.79v2C496.49,75.5,507.54,78.36,518.24,81.42Z"/><path class="cls-3" d="M531.19,85v.1a143.84,143.84,0,0,0,35.64,5.54v-2A129.89,129.89,0,0,1,537.07,85Z"/><path class="cls-3" d="M48.82,66a111,111,0,0,1,30-5.73l-.31-2.07c-14.47.57-23.07,2.4-30,4.54C48.61,63.84,48.72,64.92,48.82,66Z"/><path class="cls-3" d="M41.89,65C33.77,67.86,26,70.73,9.7,71.6l-.77,5.77c13.71-1.26,22.72-5,32.52-8.72C41.59,67.46,41.73,66.23,41.89,65Z"/><path class="cls-3" d="M164.72,76.4,163.41,72c-33.27-2.93-33-12.48-66.66-13.83v2.07C125.7,62,138.15,72.53,164.72,76.4Z"/><path class="cls-3" d="M257.52,60.73v1.89h35.64V58.56a85.1,85.1,0,0,0-9.25-.54A131.94,131.94,0,0,0,257.52,60.73Z"/><path class="cls-3" d="M244.57,67.35V63.72c-11,2.76-22,5.86-35.64,7.65v4.12C220.64,73.32,232,70,244.57,67.35Z"/><path class="cls-3" d="M338.34,71.45c.11-1,.23-2,.35-3-10.82-2.44-20.83-5.24-30.38-7.32l-.6,4.57C317.24,67.36,327.81,69.52,338.34,71.45Z"/><path class="cls-3" d="M346.71,72.93c11.23,1.89,22.06,3.3,31.15,3.3h.58l-.36-2.42a187.68,187.68,0,0,1-31.65-3.7C346.53,71.06,346.62,72,346.71,72.93Z"/><path class="cls-3" d="M449.92,61.23c-1-.68-2-1.36-3-2.06-15.21,3.59-27.22,8.91-41.29,12.07l1.56,1.15C420.93,69,434.14,64.24,449.92,61.23Z"/><path class="cls-3" d="M518.24,65.55V61.2c-8.69-3-18.83-5.44-35.64-5.72v3A105.86,105.86,0,0,1,518.24,65.55Z"/><path class="cls-4" d="M40.32,78.67A130.43,130.43,0,0,1,8.11,83.58l-.4,3c16.58-.64,24.87-3.11,32.39-5.84C40.17,80.06,40.25,79.36,40.32,78.67Z"/><path class="cls-4" d="M80.48,71.25A139.7,139.7,0,0,0,49.81,76c0,.4.08.78.12,1.17,7-2.26,15.69-4.23,30.7-5Z"/><path class="cls-4" d="M167.33,85.16c-38-2.67-29.19-13.91-70.58-14.26v1c41.86.38,29.33,12.7,71.2,15.33Z"/><path class="cls-4" d="M244.57,80.39v-3.2c-11,2.58-22,5.47-35.64,7.14v2.1C222.05,85,232.78,82.46,244.57,80.39Z"/><path class="cls-4" d="M347.92,84.53a297.29,297.29,0,0,0,29.94,1.6c.7,0,1.37,0,2.06,0l-.21-1.38a224.22,224.22,0,0,1-32.07-2.84C347.73,82.78,347.83,83.66,347.92,84.53Z"/><path class="cls-4" d="M337.07,83.29c.1-1,.2-2.08.32-3.17-11-2.05-21.11-4.35-30.8-6l-.63,4.7C315.26,80.11,325.67,81.84,337.07,83.29Z"/><path class="cls-4" d="M418,79.87c12.91-3.45,26.19-7.23,44.76-8.29-.31-.32-.62-.63-1-1-19.55,1.2-31.61,5.44-44.23,9Z"/><path class="cls-4" d="M482.6,71.59c13.89.87,24.94,3.55,35.64,6.43v-2.7a190.25,190.25,0,0,0-35.64-4.83Z"/><path class="cls-4" d="M548,85a139.32,139.32,0,0,0,18.86,1.68V85Z"/><path class="cls-5" d="M40.9,73.35c-8,3.65-16,7.18-32.51,8.16l-.15,1.07c16.54-.69,24.74-3.21,32.3-6C40.66,75.55,40.78,74.46,40.9,73.35Z"/><path class="cls-5" d="M79.43,64.15c-14.54.66-23.26,2.92-30.25,5.62.12,1.21.24,2.41.36,3.59,6.94-2.28,15.57-4.3,30.5-5.09Z"/><path class="cls-5" d="M166.16,81.23l-.65-2.16c-35.4-2.89-34.37-13.48-68.76-14.94v3.8C138,68.26,126.44,78.73,166.16,81.23Z"/><path class="cls-5" d="M244.57,71.79v-.54c-11,2.59-22,5.48-35.64,7.15V80C222.05,78,232.78,74.62,244.57,71.79Z"/><path class="cls-5" d="M337.65,77.63c.11-1.08.24-2.19.36-3.33-10.92-2-21-4.32-30.65-6l-.28,2.12C316.25,72.57,326.48,75.33,337.65,77.63Z"/><path class="cls-5" d="M377.86,82.17l1.47,0-.51-3.38A227.76,227.76,0,0,1,347,75.85c.12,1.22.25,2.42.37,3.61A183.12,183.12,0,0,0,377.86,82.17Z"/><path class="cls-5" d="M413.77,77c13.36-3.46,26.53-7.64,45-9.14-.81-.68-1.66-1.37-2.57-2.08-17.48,2.27-30.31,6.7-44.55,9.76Z"/><path class="cls-5" d="M482.6,67.51a155,155,0,0,1,35.64,5.25V69.61a127.87,127.87,0,0,0-35.64-5.23Z"/><path class="cls-6" d="M39.17,91c0-.74.12-1.52.18-2.32-9.58,3.25-18.79,6.38-32.88,7.22l-.54,4c21.06-.77,29-5,38.94-9Z"/><path class="cls-6" d="M50.76,85.06q.21,1.88.42,3.69c7.15-2.25,16.31-4,31.25-4.43l-.58-3.92A126.11,126.11,0,0,0,50.76,85.06Z"/><path class="cls-6" d="M132.39,87.2c-10.29-3-20.79-5.9-35.64-6.69v3.88c18.31.69,26.58,3.63,35.64,6.62Z"/><path class="cls-6" d="M134,87.67l1,4.19c8.17,2.61,17.77,5.09,36.08,5.94l-.69-2.31C155.23,94.13,144.61,90.85,134,87.67Z"/><path class="cls-6" d="M257.52,85v2.51a151.58,151.58,0,0,1,27-2.47c2.86,0,5.73.13,8.62.36V85Z"/><path class="cls-6" d="M208.94,94c0,1,0,1.91.06,2.83,13.55-1.55,24.62-4.23,35.57-6.64V86.35C232,88.84,220.65,91.92,208.94,94Z"/><path class="cls-6" d="M343.23,91h-6.84c0-.36.06-.75.09-1.12C325.6,88,314.78,86,305.21,84.47l-.31,2.32c21.82,3.32,45.65,10.21,76.66,10.32l-.39-2.62c-1.09,0-2.19.05-3.31.05C367.72,94.54,355.59,93,343.23,91Z"/><path class="cls-6" d="M469.61,82.7A29.45,29.45,0,0,0,467,76.86c-17.25.67-30,4.16-41.77,7.86q2.88,2,5,3.64A149.89,149.89,0,0,1,469.61,82.7Z"/><path class="cls-6" d="M421.56,90.83H405.27a114.6,114.6,0,0,1-13.16,2.7v3.21C403.74,95.85,412.58,93.42,421.56,90.83Z"/><path class="cls-6" d="M531.19,93.19c10.8,3.39,21.43,6.4,35.46,6.84q.08-1.92.12-4c-14-.39-25.11-3.17-35.58-6.51Z"/><path class="cls-6" d="M482.6,82.92a150.15,150.15,0,0,1,35.64,6.25V85.23c-10.7-3.61-21.75-7-35.64-8.1Z"/><path class="cls-7" d="M82.73,86.31c-15.46.38-24.65,1.91-31.39,3.85l.09.84H48.64c-12,4-16.7,9.21-42.84,10l-.13,1C43.83,100.75,43,89.39,82.94,87.72Z"/><path class="cls-7" d="M96.75,86.31v1.25c19.42.43,27.68,3.59,35.64,7V93.14C123.7,90,116.48,86.87,96.75,86.31Z"/><path class="cls-7" d="M135.61,94.27l.47,1.9c7.8,3.32,16.86,6.54,36.77,7.49l-1.14-3.83C152.66,99.09,143.1,96.78,135.61,94.27Z"/><path class="cls-7" d="M209.05,98.55c0,1.4.11,2.75.19,4.06,13.49-1.56,24.46-4.22,35.33-6.6V91.43C232.82,93.87,222.12,96.8,209.05,98.55Z"/><path class="cls-7" d="M293.16,87.9a72.27,72.27,0,0,0-9.25-.68,179.58,179.58,0,0,0-26.39,1.88v4.32a151.26,151.26,0,0,1,26.39-2.34c3.11,0,6.18.15,9.24.41,0-.39,0-.76,0-1.16Z"/><path class="cls-7" d="M377.86,100.48c-28.66,0-53.74-6.81-73.36-10.67l-.4,3C324.92,96.17,346.68,103,377.86,103c1.56,0,3.07,0,4.55-.08l-.36-2.47C380.68,100.44,379.29,100.48,377.86,100.48Z"/><path class="cls-7" d="M392.11,99.64v.15c0,.81,0,1.6,0,2.39,12.31-1.36,22.27-4.29,33.07-7.08V92.3C414.25,95.18,404.15,98.21,392.11,99.64Z"/><path class="cls-7" d="M432.82,90.39a27.89,27.89,0,0,1,2.44,2.27,168.63,168.63,0,0,1,35.86-4c-.2-1-.41-2-.65-3A167,167,0,0,0,432.82,90.39Z"/><path class="cls-7" d="M531.19,96.73c10.78,2.62,21.38,4.94,35.37,5.28,0-.32,0-.65,0-1-15.27-.37-25.29-3.08-35.41-6.12Z"/><path class="cls-7" d="M482.6,88.8a190.25,190.25,0,0,1,35.64,4.83V91.11a156.55,156.55,0,0,0-35.64-5.27Z"/><path class="cls-3" d="M5.27,105l-.26,2c39.52-1,35.43-12,78.85-13l-.52-3.53C39.11,92.1,46.46,103.85,5.27,105Z"/><path class="cls-3" d="M136.79,99.08l.77,3.11c7.91,2.59,17.72,4.94,36.53,5.61l-.6-2C152.85,105,143.76,102.15,136.79,99.08Z"/><path class="cls-3" d="M96.75,90.19v3.74c18.85.54,27.06,3.45,35.64,6.48V97C125.05,93.58,117.73,90.39,96.75,90.19Z"/><path class="cls-3" d="M244.57,98.7c-11.65,2-22.27,4.5-35.19,6,.05.69.1,1.36.16,2,13.36-1.46,24.24-3.94,35-6.15Z"/><path class="cls-3" d="M283.91,95.13a210.8,210.8,0,0,0-26.39,1.6v1.4a160.22,160.22,0,0,1,26.39-2.21c3,0,6.09.14,9.18.38,0-.24,0-.46,0-.69C289.83,95.31,286.75,95.13,283.91,95.13Z"/><path class="cls-3" d="M377.86,104.44c-29.12,0-54.54-4.93-74.29-7.62l-.08.59c22.4,3,47,9.6,78.81,9.6H383l-.4-2.67C381.08,104.39,379.49,104.44,377.86,104.44Z"/><path class="cls-3" d="M436,93.63a9.93,9.93,0,0,1,.78,1.53,133.07,133.07,0,0,1,34.7-4.57c0-.33-.1-.66-.16-1A165.63,165.63,0,0,0,436,93.63Z"/><path class="cls-3" d="M425.21,96.26c-10.94,2.88-21,5.9-33,7.33,0,1,.07,2,.13,3,13.1-1.17,22.67-4.55,32.92-7.9Z"/><path class="cls-3" d="M531.19,101.72a127.46,127.46,0,0,0,35,5.25c0-.65.11-1.31.15-2a152.8,152.8,0,0,1-35.18-5.17Z"/><path class="cls-3" d="M518.24,96.37c-10.7-2.87-21.75-5.56-35.64-6.46v.92a130.37,130.37,0,0,1,35.64,6.79Z"/><path class="cls-3" d="M168.54,89.22c-18.39-1.13-27.53-4.1-35.91-7l.44,1.77c9.9,2.48,19.1,5.16,35.76,6.24Z"/><path class="cls-3" d="M96.75,75v3.93a152.59,152.59,0,0,1,35.64,4.84V82.09C123.33,78.89,115.06,75.73,96.75,75Z"/><path class="cls-1" d="M14,181.85l-1.29-5.4H5.83l-1.33,5.4H.07l6.49-25.5H12.2l6.38,25.5Zm-4.6-21.43H9.22L6.38,173.06h5.75Z"/><path class="cls-1" d="M21.16,181.85V154.62h4.17v27.23Z"/><path class="cls-1" d="M37.42,179.12A4.36,4.36,0,0,1,36,181.48a4.46,4.46,0,0,1-2.84.84,5,5,0,0,1-1.66-.29,4.13,4.13,0,0,1-1.53-.95,5.08,5.08,0,0,1-1.12-1.73,6.62,6.62,0,0,1-.45-2.58,6.26,6.26,0,0,1,.72-3.18,5.66,5.66,0,0,1,1.85-2,7.12,7.12,0,0,1,2.5-1,14.22,14.22,0,0,1,2.71-.27h1v-.58a3.82,3.82,0,0,0-.76-2.64,2.61,2.61,0,0,0-2-.81,4,4,0,0,0-1.94.48A5.2,5.2,0,0,0,31,168.09l-2-2.56a7,7,0,0,1,2.62-2,7.66,7.66,0,0,1,3.13-.7,7.1,7.1,0,0,1,2.93.54A4.74,4.74,0,0,1,39.6,165a6.71,6.71,0,0,1,1,2.55,16.76,16.76,0,0,1,.31,3.42v10.91H37.5v-2.73Zm-.14-5.88H36.06a9,9,0,0,0-1.49.13,3.35,3.35,0,0,0-1.28.49,2.65,2.65,0,0,0-.88,1,3.42,3.42,0,0,0-.33,1.6,3,3,0,0,0,.64,2.13,2,2,0,0,0,1.5.68,2.24,2.24,0,0,0,1.43-.47,3.25,3.25,0,0,0,.94-1.19,6,6,0,0,0,.52-1.6,9.35,9.35,0,0,0,.17-1.71Z"/><path class="cls-1" d="M53,167.62a4.18,4.18,0,0,0-1.29-1.11,3.57,3.57,0,0,0-1.77-.44,2.1,2.1,0,0,0-1.55.63,2.27,2.27,0,0,0-.63,1.68,1.83,1.83,0,0,0,.66,1.57,9,9,0,0,0,2.11,1,11.77,11.77,0,0,1,1.6.7,6,6,0,0,1,1.44,1.06,5,5,0,0,1,1,1.57,5.55,5.55,0,0,1,.39,2.18,6.59,6.59,0,0,1-.5,2.65A5.34,5.34,0,0,1,53.09,181a5.5,5.5,0,0,1-1.93,1.12,7.19,7.19,0,0,1-2.27.36A8.1,8.1,0,0,1,43,180l2.25-2.6a6.49,6.49,0,0,0,1.55,1.3,3.88,3.88,0,0,0,2.06.54,2,2,0,0,0,1.63-.69,2.65,2.65,0,0,0,.59-1.8,2.08,2.08,0,0,0-.87-1.87,10.13,10.13,0,0,0-2.3-1.08,10.2,10.2,0,0,1-1.44-.61,4.79,4.79,0,0,1-1.29-1,4.36,4.36,0,0,1-.94-1.49,5.73,5.73,0,0,1-.35-2.15,5.46,5.46,0,0,1,.49-2.37,5.8,5.8,0,0,1,1.31-1.79,5.66,5.66,0,0,1,1.88-1.12,6.67,6.67,0,0,1,2.22-.37,7.53,7.53,0,0,1,3.06.59A7.8,7.8,0,0,1,55.16,165Z"/><path class="cls-1" d="M67.14,181.85l-5-8.82h-.07v8.82H57.92V154.62h4.17v16.61h.07l4.8-7.75h4.83L65.89,172l6.15,9.9Z"/><path class="cls-1" d="M82.15,179.12a4.32,4.32,0,0,1-1.48,2.36,4.46,4.46,0,0,1-2.84.84,5,5,0,0,1-1.66-.29,4.13,4.13,0,0,1-1.53-.95,5.08,5.08,0,0,1-1.12-1.73,6.63,6.63,0,0,1-.44-2.58,6.26,6.26,0,0,1,.72-3.18,5.63,5.63,0,0,1,1.84-2,7.17,7.17,0,0,1,2.51-1,14.07,14.07,0,0,1,2.71-.27h1v-.58a3.77,3.77,0,0,0-.76-2.64,2.61,2.61,0,0,0-2-.81,3.92,3.92,0,0,0-1.93.48,5.11,5.11,0,0,0-1.5,1.28l-2-2.56a7,7,0,0,1,2.62-2,7.67,7.67,0,0,1,3.14-.7,7.13,7.13,0,0,1,2.93.54A4.71,4.71,0,0,1,84.32,165a6.71,6.71,0,0,1,1.05,2.55,16.71,16.71,0,0,1,.32,3.42v10.91H82.22v-2.73ZM82,173.24H80.78a9.07,9.07,0,0,0-1.49.13,3.3,3.3,0,0,0-1.27.49,2.59,2.59,0,0,0-.89,1,3.42,3.42,0,0,0-.33,1.6,3,3,0,0,0,.65,2.13,2,2,0,0,0,1.49.68,2.28,2.28,0,0,0,1.44-.47,3.48,3.48,0,0,0,.94-1.19,6.38,6.38,0,0,0,.51-1.6,9.35,9.35,0,0,0,.17-1.71Z"/><path class="cls-1" d="M110.26,181.57a8.81,8.81,0,0,1-8-.08,9,9,0,0,1-3-2.79,14.19,14.19,0,0,1-1.92-4.23,20.13,20.13,0,0,1-.68-5.37,20.39,20.39,0,0,1,.68-5.39,13.74,13.74,0,0,1,1.94-4.25,9,9,0,0,1,3-2.77,8,8,0,0,1,4-1,9.08,9.08,0,0,1,4,.81,7,7,0,0,1,2.76,2.32l-2.54,3a4.61,4.61,0,0,0-3.91-2.13,3.8,3.8,0,0,0-2.32.74,5.8,5.8,0,0,0-1.66,2,11.13,11.13,0,0,0-1,3,19.31,19.31,0,0,0-.33,3.66,19.11,19.11,0,0,0,.33,3.62,11.13,11.13,0,0,0,1,3,5.63,5.63,0,0,0,1.68,2,3.87,3.87,0,0,0,2.38.74,3.78,3.78,0,0,0,2.23-.65,5.86,5.86,0,0,0,1.56-1.58l2.55,2.92A8.15,8.15,0,0,1,110.26,181.57Z"/><path class="cls-1" d="M115.88,181.85V154.62h4.17v27.23Z"/><path class="cls-1" d="M128.86,158.15a2.47,2.47,0,0,1-.7,1.8,2.46,2.46,0,0,1-3.48,0,2.49,2.49,0,0,1-.68-1.8,2.56,2.56,0,0,1,.68-1.8,2.39,2.39,0,0,1,3.5,0A2.6,2.6,0,0,1,128.86,158.15Zm-4.5,23.7V163.48h4.17v18.37Z"/><path class="cls-1" d="M138.61,163.89a4.36,4.36,0,0,1,3-1,4.79,4.79,0,0,1,1.73.28,3.8,3.8,0,0,1,1.24.78,4.21,4.21,0,0,1,.87,1.13,6.33,6.33,0,0,1,.53,1.34H146a5.72,5.72,0,0,1,.65-1.28,5.54,5.54,0,0,1,1-1.14,4.93,4.93,0,0,1,3.26-1.11,4.37,4.37,0,0,1,2.49.63,4.22,4.22,0,0,1,1.46,1.67,7.84,7.84,0,0,1,.7,2.4,20.82,20.82,0,0,1,.18,2.75v11.53h-4.16V170.32a13.07,13.07,0,0,0-.08-1.38,4.53,4.53,0,0,0-.31-1.28,2.1,2.1,0,0,0-.7-.92,2,2,0,0,0-1.2-.34,2.5,2.5,0,0,0-2.23,1.37,6.59,6.59,0,0,0-.83,3.46v10.62h-4.09V170.32c0-.45,0-.91-.07-1.38a4.9,4.9,0,0,0-.31-1.28,2.22,2.22,0,0,0-.68-.92,1.87,1.87,0,0,0-1.17-.34,2.4,2.4,0,0,0-2.18,1.37,6.71,6.71,0,0,0-.79,3.42v10.66h-4.17V163.48H137v2.92h.08A5.1,5.1,0,0,1,138.61,163.89Z"/><path class="cls-1" d="M167.72,179.12a4.36,4.36,0,0,1-1.47,2.36,4.46,4.46,0,0,1-2.84.84,5,5,0,0,1-1.66-.29,4.13,4.13,0,0,1-1.53-.95,5.08,5.08,0,0,1-1.12-1.73,6.62,6.62,0,0,1-.45-2.58,6.26,6.26,0,0,1,.72-3.18,5.66,5.66,0,0,1,1.85-2,7.12,7.12,0,0,1,2.5-1,14.22,14.22,0,0,1,2.71-.27h1v-.58a3.82,3.82,0,0,0-.76-2.64,2.61,2.61,0,0,0-2-.81,4,4,0,0,0-1.94.48,5.2,5.2,0,0,0-1.49,1.28l-2-2.56a7,7,0,0,1,2.62-2,7.66,7.66,0,0,1,3.13-.7,7.1,7.1,0,0,1,2.93.54A4.74,4.74,0,0,1,169.9,165a6.71,6.71,0,0,1,1,2.55,16.76,16.76,0,0,1,.31,3.42v10.91H167.8v-2.73Zm-.14-5.88h-1.22a9,9,0,0,0-1.49.13,3.35,3.35,0,0,0-1.28.49,2.65,2.65,0,0,0-.88,1,3.42,3.42,0,0,0-.33,1.6,3,3,0,0,0,.64,2.13,2,2,0,0,0,1.5.68,2.24,2.24,0,0,0,1.43-.47,3.25,3.25,0,0,0,.94-1.19,6,6,0,0,0,.52-1.6,9.35,9.35,0,0,0,.17-1.71Z"/><path class="cls-1" d="M180.19,166.61v9.44a4,4,0,0,0,.46,2.2,1.58,1.58,0,0,0,1.42.69,3.31,3.31,0,0,0,.68-.08,2.19,2.19,0,0,0,.61-.21l.07,3.17a5.21,5.21,0,0,1-1.18.36,8.13,8.13,0,0,1-1.47.14,4.06,4.06,0,0,1-3.45-1.38,6.54,6.54,0,0,1-1.05-4V166.61h-2.36v-3.13h2.36V158.8h3.91v4.68h3.28v3.13Z"/><path class="cls-1" d="M189.44,173.71a8.92,8.92,0,0,0,.22,2,5.47,5.47,0,0,0,.65,1.65,3.38,3.38,0,0,0,1,1.12,2.45,2.45,0,0,0,1.42.42,2.38,2.38,0,0,0,1.82-.72,5.62,5.62,0,0,0,1.09-1.66l3.06,1.73a7.32,7.32,0,0,1-2.3,3,6.13,6.13,0,0,1-3.82,1.14,6.38,6.38,0,0,1-5.27-2.52c-1.33-1.69-2-4.1-2-7.25a14.82,14.82,0,0,1,.51-4,9.61,9.61,0,0,1,1.48-3.12,6.73,6.73,0,0,1,2.27-2,6.07,6.07,0,0,1,2.93-.7,6.18,6.18,0,0,1,3.08.72,5.86,5.86,0,0,1,2.06,2,8.82,8.82,0,0,1,1.16,2.94,17,17,0,0,1,.37,3.67v1.55Zm5.79-3a7.32,7.32,0,0,0-.66-3.34,2.2,2.2,0,0,0-2.07-1.27,2.11,2.11,0,0,0-1.38.46,3.65,3.65,0,0,0-.92,1.17,6.38,6.38,0,0,0-.54,1.52,6.75,6.75,0,0,0-.18,1.46Z"/><path class="cls-1" d="M223.18,181.85l-1.29-5.4H215l-1.33,5.4h-4.42l6.49-25.5h5.64l6.38,25.5Zm-4.61-21.43h-.15l-2.84,12.64h5.75Z"/><path class="cls-1" d="M239.62,181.85v-2.62h-.07a5.14,5.14,0,0,1-1.38,2.3,4,4,0,0,1-2.83.94,4.54,4.54,0,0,1-2.58-.76,6,6,0,0,1-1.91-2.11,11.07,11.07,0,0,1-1.18-3.17,18.12,18.12,0,0,1-.41-3.94,17.9,17.9,0,0,1,.39-3.86,9.83,9.83,0,0,1,1.16-3,6,6,0,0,1,1.9-2,4.78,4.78,0,0,1,2.63-.72,4.09,4.09,0,0,1,2.62.84,4.39,4.39,0,0,1,1.48,2.11h.11v-11.2h4.09v27.23Zm.07-9.18a13.65,13.65,0,0,0-.2-2.47,7.84,7.84,0,0,0-.59-2,3.66,3.66,0,0,0-1-1.34,2.19,2.19,0,0,0-1.39-.48,2.16,2.16,0,0,0-1.4.48,3.61,3.61,0,0,0-1,1.34,8.33,8.33,0,0,0-.55,2,15.84,15.84,0,0,0-.18,2.47,15.59,15.59,0,0,0,.18,2.43,8.33,8.33,0,0,0,.55,2,3.49,3.49,0,0,0,1,1.33,2.12,2.12,0,0,0,1.4.49,2.14,2.14,0,0,0,1.41-.49,3.62,3.62,0,0,0,1-1.33,7.84,7.84,0,0,0,.59-2A13.43,13.43,0,0,0,239.69,172.67Z"/><path class="cls-1" d="M256.43,179.12a4.36,4.36,0,0,1-1.47,2.36,4.46,4.46,0,0,1-2.84.84,5,5,0,0,1-1.66-.29,4.13,4.13,0,0,1-1.53-.95,5.08,5.08,0,0,1-1.12-1.73,6.62,6.62,0,0,1-.45-2.58,6.26,6.26,0,0,1,.72-3.18,5.66,5.66,0,0,1,1.85-2,7.12,7.12,0,0,1,2.5-1,14.22,14.22,0,0,1,2.71-.27h1v-.58a3.82,3.82,0,0,0-.76-2.64,2.61,2.61,0,0,0-2-.81,4,4,0,0,0-1.94.48,5.2,5.2,0,0,0-1.49,1.28l-2-2.56a7,7,0,0,1,2.62-2,7.66,7.66,0,0,1,3.13-.7,7.1,7.1,0,0,1,2.93.54,4.74,4.74,0,0,1,1.94,1.56,6.71,6.71,0,0,1,1.05,2.55,16.76,16.76,0,0,1,.31,3.42v10.91h-3.46v-2.73Zm-.14-5.88h-1.22a9,9,0,0,0-1.49.13,3.35,3.35,0,0,0-1.28.49,2.65,2.65,0,0,0-.88,1,3.42,3.42,0,0,0-.33,1.6,3,3,0,0,0,.64,2.13,2,2,0,0,0,1.5.68,2.24,2.24,0,0,0,1.43-.47,3.25,3.25,0,0,0,.94-1.19,6,6,0,0,0,.52-1.6,9.35,9.35,0,0,0,.17-1.71Z"/><path class="cls-1" d="M279.07,172.63a19,19,0,0,1-.38,3.91,10.66,10.66,0,0,1-1.17,3.12,5.89,5.89,0,0,1-1.91,2.07,4.77,4.77,0,0,1-2.62.74,4,4,0,0,1-2.67-.89,4.55,4.55,0,0,1-1.46-2.14h-.07V190.5h-4.1v-27h4v2.59h.08a5.58,5.58,0,0,1,1.43-2.28,3.81,3.81,0,0,1,2.77-.92,4.65,4.65,0,0,1,2.6.73,6.21,6.21,0,0,1,1.9,2.06,11,11,0,0,1,1.18,3.1A17.49,17.49,0,0,1,279.07,172.63Zm-4.16,0a15.91,15.91,0,0,0-.19-2.45,8.06,8.06,0,0,0-.55-2,3.7,3.7,0,0,0-1-1.32,2.14,2.14,0,0,0-1.4-.48,2.07,2.07,0,0,0-1.36.48,3.74,3.74,0,0,0-1,1.32,7.6,7.6,0,0,0-.59,2,15.11,15.11,0,0,0,0,4.9,7.88,7.88,0,0,0,.59,2,3.52,3.52,0,0,0,1,1.33,2,2,0,0,0,1.36.49,2.1,2.1,0,0,0,1.4-.49,3.49,3.49,0,0,0,1-1.33,8.37,8.37,0,0,0,.55-2A15.81,15.81,0,0,0,274.91,172.63Z"/><path class="cls-1" d="M287.18,166.61v9.44a4,4,0,0,0,.47,2.2,1.56,1.56,0,0,0,1.41.69,3.32,3.32,0,0,0,.69-.08,2.19,2.19,0,0,0,.61-.21l.07,3.17a5.37,5.37,0,0,1-1.18.36,8.15,8.15,0,0,1-1.48.14,4.05,4.05,0,0,1-3.44-1.38,6.54,6.54,0,0,1-1.05-4V166.61h-2.36v-3.13h2.36V158.8h3.9v4.68h3.29v3.13Z"/><path class="cls-1" d="M301.23,179.12a4.36,4.36,0,0,1-1.47,2.36,4.48,4.48,0,0,1-2.84.84,4.92,4.92,0,0,1-1.66-.29,4,4,0,0,1-1.53-.95,5.09,5.09,0,0,1-1.13-1.73,6.82,6.82,0,0,1-.44-2.58,6.26,6.26,0,0,1,.72-3.18,5.63,5.63,0,0,1,1.84-2,7.17,7.17,0,0,1,2.51-1,14.15,14.15,0,0,1,2.71-.27h1v-.58a3.82,3.82,0,0,0-.75-2.64,2.64,2.64,0,0,0-2-.81,4,4,0,0,0-1.94.48,5.2,5.2,0,0,0-1.49,1.28l-2-2.56a7,7,0,0,1,2.62-2,7.63,7.63,0,0,1,3.13-.7,7.1,7.1,0,0,1,2.93.54,4.74,4.74,0,0,1,1.94,1.56,6.71,6.71,0,0,1,1,2.55,16.76,16.76,0,0,1,.31,3.42v10.91h-3.46v-2.73Zm-.15-5.88h-1.21a8.88,8.88,0,0,0-1.49.13,3.35,3.35,0,0,0-1.28.49,2.57,2.57,0,0,0-.88,1,3.42,3.42,0,0,0-.33,1.6,3,3,0,0,0,.64,2.13,2,2,0,0,0,1.49.68,2.24,2.24,0,0,0,1.44-.47,3.25,3.25,0,0,0,.94-1.19,6,6,0,0,0,.52-1.6,9.31,9.31,0,0,0,.16-1.71Z"/><path class="cls-1" d="M313.7,166.61v9.44a4,4,0,0,0,.46,2.2,1.58,1.58,0,0,0,1.42.69,3.31,3.31,0,0,0,.68-.08,2.19,2.19,0,0,0,.61-.21l.07,3.17a5.37,5.37,0,0,1-1.18.36,8.13,8.13,0,0,1-1.47.14,4.06,4.06,0,0,1-3.45-1.38,6.54,6.54,0,0,1-1-4V166.61h-2.36v-3.13h2.36V158.8h3.91v4.68H317v3.13Z"/><path class="cls-1" d="M324.46,158.15a2.47,2.47,0,0,1-.7,1.8,2.32,2.32,0,0,1-1.73.72,2.28,2.28,0,0,1-1.75-.72,2.5,2.5,0,0,1-.69-1.8,2.57,2.57,0,0,1,.69-1.8,2.22,2.22,0,0,1,1.75-.76,2.24,2.24,0,0,1,1.75.76A2.6,2.6,0,0,1,324.46,158.15Zm-4.5,23.7V163.48h4.17v18.37Z"/><path class="cls-1" d="M341.75,172.7a14.58,14.58,0,0,1-.5,4,9.24,9.24,0,0,1-1.44,3.08,6.87,6.87,0,0,1-2.27,2,6.74,6.74,0,0,1-6.06,0,6.9,6.9,0,0,1-2.28-2,9.44,9.44,0,0,1-1.44-3.08,15,15,0,0,1-.5-4,15.23,15.23,0,0,1,.5-4,9.55,9.55,0,0,1,1.43-3.12,6.29,6.29,0,0,1,2.27-2,6.5,6.5,0,0,1,3.05-.7,6.39,6.39,0,0,1,3,.7,6.55,6.55,0,0,1,2.27,2,9.36,9.36,0,0,1,1.44,3.12A14.83,14.83,0,0,1,341.75,172.7Zm-4.16,0a14.66,14.66,0,0,0-.19-2.47,7.47,7.47,0,0,0-.57-2,3.85,3.85,0,0,0-1-1.34,2.22,2.22,0,0,0-2.76,0,3.58,3.58,0,0,0-.94,1.34,8.31,8.31,0,0,0-.56,2,16.9,16.9,0,0,0,0,4.92,8,8,0,0,0,.56,2,3.53,3.53,0,0,0,.94,1.31,2,2,0,0,0,1.38.49,2.1,2.1,0,0,0,1.4-.49,3.57,3.57,0,0,0,1-1.31,7.65,7.65,0,0,0,.55-2A14.76,14.76,0,0,0,337.59,172.67Z"/><path class="cls-1" d="M349.05,163.48v2.92h.08a5.7,5.7,0,0,1,1.71-2.51,5,5,0,0,1,5.46-.39,4.19,4.19,0,0,1,1.45,1.67,7.84,7.84,0,0,1,.71,2.4,20.82,20.82,0,0,1,.18,2.75v11.53h-4.17V170.32a13,13,0,0,0-.07-1.38,4.53,4.53,0,0,0-.31-1.28,2.18,2.18,0,0,0-.7-.92,2,2,0,0,0-1.2-.34,2.49,2.49,0,0,0-2.23,1.37,6.5,6.5,0,0,0-.83,3.46v10.62H345V163.48Z"/><path class="cls-1" d="M381.09,161.28a4.53,4.53,0,0,0-3.61-1.69,3.63,3.63,0,0,0-1.22.2,3,3,0,0,0-1.07.63,2.87,2.87,0,0,0-.75,1.11,4.23,4.23,0,0,0-.28,1.62,3.16,3.16,0,0,0,1,2.51,11.08,11.08,0,0,0,2.62,1.67c.63.32,1.29.68,2,1.09a8.77,8.77,0,0,1,1.81,1.47,7,7,0,0,1,1.32,2.06,6.91,6.91,0,0,1,.52,2.81,8.35,8.35,0,0,1-.61,3.31,7.34,7.34,0,0,1-1.62,2.43,6.78,6.78,0,0,1-2.38,1.5,8.15,8.15,0,0,1-2.88.5,9.65,9.65,0,0,1-4-.82,8.49,8.49,0,0,1-2.95-2.09l2.39-3.18a6,6,0,0,0,2.05,1.59,5.65,5.65,0,0,0,2.45.58,3.14,3.14,0,0,0,2.32-.94,3.56,3.56,0,0,0,.93-2.63,3.31,3.31,0,0,0-1.11-2.63,12.53,12.53,0,0,0-2.8-1.8,16.09,16.09,0,0,1-2-1.12,7.47,7.47,0,0,1-1.66-1.46,6.42,6.42,0,0,1-1.14-2,7.61,7.61,0,0,1-.43-2.72,8.23,8.23,0,0,1,.65-3.41,7.09,7.09,0,0,1,1.69-2.36,6.94,6.94,0,0,1,2.38-1.38,8.34,8.34,0,0,1,2.69-.45,9.46,9.46,0,0,1,3.56.63,7,7,0,0,1,2.64,1.85Z"/><path class="cls-1" d="M395,182a6.55,6.55,0,0,1-2.5.45,6.11,6.11,0,0,1-5.3-2.76,9.75,9.75,0,0,1-1.34-3.12,16.85,16.85,0,0,1-.44-4,15.82,15.82,0,0,1,.46-4,9.37,9.37,0,0,1,1.38-3.1,6.09,6.09,0,0,1,5.27-2.7,6.06,6.06,0,0,1,2.6.5,6.17,6.17,0,0,1,1.72,1.12L395,167.55a3.67,3.67,0,0,0-.94-.72,2.79,2.79,0,0,0-1.31-.29,2.5,2.5,0,0,0-2.34,1.68,10.35,10.35,0,0,0-.8,4.41,10.11,10.11,0,0,0,.81,4.4,2.63,2.63,0,0,0,2.47,1.65,2.87,2.87,0,0,0,1.33-.28,3.07,3.07,0,0,0,1-.8l1.73,3.17A5.39,5.39,0,0,1,395,182Z"/><path class="cls-1" d="M404,158.15a2.47,2.47,0,0,1-.7,1.8,2.46,2.46,0,0,1-3.48,0,2.49,2.49,0,0,1-.68-1.8,2.56,2.56,0,0,1,.68-1.8,2.39,2.39,0,0,1,3.5,0A2.56,2.56,0,0,1,404,158.15Zm-4.5,23.7V163.48h4.17v18.37Z"/><path class="cls-1" d="M410.85,173.71a8.92,8.92,0,0,0,.22,2,5.74,5.74,0,0,0,.64,1.65,3.51,3.51,0,0,0,1,1.12,2.41,2.41,0,0,0,1.42.42,2.38,2.38,0,0,0,1.82-.72,5.62,5.62,0,0,0,1.09-1.66l3.06,1.73a7.26,7.26,0,0,1-2.31,3,6.08,6.08,0,0,1-3.81,1.14,6.37,6.37,0,0,1-5.27-2.52c-1.33-1.69-2-4.1-2-7.25a14.81,14.81,0,0,1,.52-4,9.61,9.61,0,0,1,1.48-3.12,6.7,6.7,0,0,1,2.26-2,6.71,6.71,0,0,1,6,0,5.8,5.8,0,0,1,2.07,2,9,9,0,0,1,1.16,2.94,17,17,0,0,1,.37,3.67v1.55Zm5.79-3a7.19,7.19,0,0,0-.67-3.34,2.17,2.17,0,0,0-2.06-1.27,2.11,2.11,0,0,0-1.38.46,3.68,3.68,0,0,0-.93,1.17,7.49,7.49,0,0,0-.72,3Z"/><path class="cls-1" d="M427.81,163.48v2.92h.07a5.81,5.81,0,0,1,1.72-2.51,5,5,0,0,1,5.45-.39,4.29,4.29,0,0,1,1.46,1.67,7.84,7.84,0,0,1,.7,2.4,20.82,20.82,0,0,1,.18,2.75v11.53h-4.16V170.32a13.07,13.07,0,0,0-.08-1.38,4.53,4.53,0,0,0-.31-1.28,2.1,2.1,0,0,0-.7-.92,2,2,0,0,0-1.2-.34,2.5,2.5,0,0,0-2.23,1.37,6.59,6.59,0,0,0-.83,3.46v10.62h-4.17V163.48Z"/><path class="cls-1" d="M450,182a6.55,6.55,0,0,1-2.5.45,6.11,6.11,0,0,1-5.3-2.76,9.75,9.75,0,0,1-1.34-3.12,16.85,16.85,0,0,1-.44-4,15.82,15.82,0,0,1,.46-4,9.37,9.37,0,0,1,1.38-3.1,6.09,6.09,0,0,1,5.27-2.7,6.06,6.06,0,0,1,2.6.5,6.17,6.17,0,0,1,1.72,1.12L450,167.55a3.67,3.67,0,0,0-.94-.72,2.79,2.79,0,0,0-1.31-.29,2.5,2.5,0,0,0-2.34,1.68,10.35,10.35,0,0,0-.8,4.41,10.11,10.11,0,0,0,.81,4.4,2.63,2.63,0,0,0,2.47,1.65,2.87,2.87,0,0,0,1.33-.28,3.07,3.07,0,0,0,1-.8l1.73,3.17A5.39,5.39,0,0,1,450,182Z"/><path class="cls-1" d="M457.45,173.71a8.92,8.92,0,0,0,.22,2,5.47,5.47,0,0,0,.65,1.65,3.38,3.38,0,0,0,1,1.12,2.43,2.43,0,0,0,1.42.42,2.38,2.38,0,0,0,1.82-.72,5.62,5.62,0,0,0,1.09-1.66l3.06,1.73a7.32,7.32,0,0,1-2.3,3,6.13,6.13,0,0,1-3.82,1.14,6.38,6.38,0,0,1-5.27-2.52c-1.33-1.69-2-4.1-2-7.25a14.82,14.82,0,0,1,.51-4,9.61,9.61,0,0,1,1.48-3.12,6.73,6.73,0,0,1,2.27-2,6.07,6.07,0,0,1,2.93-.7,6.18,6.18,0,0,1,3.08.72,5.86,5.86,0,0,1,2.06,2,8.82,8.82,0,0,1,1.16,2.94,17,17,0,0,1,.37,3.67v1.55Zm5.79-3a7.32,7.32,0,0,0-.66-3.34,2.19,2.19,0,0,0-2.07-1.27,2.11,2.11,0,0,0-1.38.46,3.65,3.65,0,0,0-.92,1.17,6.38,6.38,0,0,0-.54,1.52,6.75,6.75,0,0,0-.18,1.46Z"/><path class="cls-1" d="M490.84,181.57a8.81,8.81,0,0,1-8-.08,9,9,0,0,1-3-2.79,13.7,13.7,0,0,1-1.92-4.23,19.74,19.74,0,0,1-.68-5.37,20,20,0,0,1,.68-5.39,13.73,13.73,0,0,1,1.93-4.25,9,9,0,0,1,3-2.77,8,8,0,0,1,4-1,9.11,9.11,0,0,1,3.95.81,7,7,0,0,1,2.76,2.32l-2.54,3a4.61,4.61,0,0,0-3.91-2.13,3.78,3.78,0,0,0-2.32.74,5.69,5.69,0,0,0-1.66,2,10.47,10.47,0,0,0-1,3,19.31,19.31,0,0,0-.33,3.66,19.11,19.11,0,0,0,.33,3.62,10.47,10.47,0,0,0,1,3,5.71,5.71,0,0,0,1.67,2,3.89,3.89,0,0,0,2.38.74,3.76,3.76,0,0,0,2.23-.65,5.9,5.9,0,0,0,1.57-1.58l2.54,2.92A8,8,0,0,1,490.84,181.57Z"/><path class="cls-1" d="M499,173.71a9.52,9.52,0,0,0,.22,2,5.74,5.74,0,0,0,.65,1.65,3.49,3.49,0,0,0,1,1.12,2.45,2.45,0,0,0,1.42.42,2.42,2.42,0,0,0,1.83-.72,5.8,5.8,0,0,0,1.08-1.66l3.06,1.73a7.24,7.24,0,0,1-2.3,3,6.11,6.11,0,0,1-3.82,1.14A6.4,6.4,0,0,1,496.9,180c-1.33-1.69-2-4.1-2-7.25a14.42,14.42,0,0,1,.52-4,9.4,9.4,0,0,1,1.47-3.12,6.83,6.83,0,0,1,2.27-2,6.07,6.07,0,0,1,2.93-.7,6.18,6.18,0,0,1,3.08.72,5.69,5.69,0,0,1,2.06,2,9,9,0,0,1,1.17,2.94,17.64,17.64,0,0,1,.36,3.67v1.55Zm5.79-3a7.32,7.32,0,0,0-.66-3.34,2.18,2.18,0,0,0-2.07-1.27,2.11,2.11,0,0,0-1.38.46,3.65,3.65,0,0,0-.92,1.17,7.39,7.39,0,0,0-.54,1.52,6.75,6.75,0,0,0-.18,1.46Z"/><path class="cls-1" d="M516,163.48v2.92H516a5.7,5.7,0,0,1,1.71-2.51,5,5,0,0,1,5.46-.39,4.29,4.29,0,0,1,1.46,1.67,8.12,8.12,0,0,1,.7,2.4,20.82,20.82,0,0,1,.18,2.75v11.53h-4.17V170.32a13,13,0,0,0-.07-1.38,4.53,4.53,0,0,0-.31-1.28,2.18,2.18,0,0,0-.7-.92,2,2,0,0,0-1.2-.34,2.49,2.49,0,0,0-2.23,1.37,6.59,6.59,0,0,0-.83,3.46v10.62h-4.17V163.48Z"/><path class="cls-1" d="M534.62,166.61v9.44a4,4,0,0,0,.46,2.2,1.59,1.59,0,0,0,1.42.69,3.23,3.23,0,0,0,.68-.08,2,2,0,0,0,.61-.21l.08,3.17a5.37,5.37,0,0,1-1.18.36,8.32,8.32,0,0,1-1.48.14,4.06,4.06,0,0,1-3.45-1.38,6.54,6.54,0,0,1-1-4V166.61h-2.36v-3.13h2.36V158.8h3.91v4.68h3.28v3.13Z"/><path class="cls-1" d="M543.88,173.71a8.92,8.92,0,0,0,.22,2,5.46,5.46,0,0,0,.64,1.65,3.49,3.49,0,0,0,1,1.12,2.45,2.45,0,0,0,1.42.42,2.4,2.4,0,0,0,1.83-.72,5.83,5.83,0,0,0,1.09-1.66l3.06,1.73a7.26,7.26,0,0,1-2.31,3,6.1,6.1,0,0,1-3.81,1.14,6.4,6.4,0,0,1-5.28-2.52c-1.32-1.69-2-4.1-2-7.25a14.81,14.81,0,0,1,.52-4,9.4,9.4,0,0,1,1.47-3.12,6.83,6.83,0,0,1,2.27-2,6.07,6.07,0,0,1,2.93-.7,6.15,6.15,0,0,1,3.08.72,5.8,5.8,0,0,1,2.07,2,9.27,9.27,0,0,1,1.16,2.94,17.62,17.62,0,0,1,.37,3.67v1.55Zm5.78-3a7.32,7.32,0,0,0-.66-3.34,2.17,2.17,0,0,0-2.06-1.27,2.12,2.12,0,0,0-1.39.46,3.79,3.79,0,0,0-.92,1.17,6.83,6.83,0,0,0-.53,1.52,6.23,6.23,0,0,0-.19,1.46Z"/><path class="cls-1" d="M563.16,163.91a3.33,3.33,0,0,1,2.43-1h.32a.84.84,0,0,1,.31.07l-.22,4.18a3.56,3.56,0,0,0-.89-.11,2.22,2.22,0,0,0-1.43.49,4,4,0,0,0-1.07,1.28,6.29,6.29,0,0,0-.67,1.8,9.4,9.4,0,0,0-.22,2v9.22h-4.24V163.48h4.09V167h.08A6.39,6.39,0,0,1,563.16,163.91Z"/></g></svg>